HIERARCHY
ROOT Hip
{
	OFFSET 0.000000 0.000000 0.000000
	CHANNELS 6 Xposition Yposition Zposition Xrotation Yrotation Zrotation
	JOINT LowerSpine
	{
		OFFSET 0.000000 5.515803 9.266300
		CHANNELS 6 Xposition Yposition Zposition Xrotation Yrotation Zrotation
		JOINT MiddleSpine
		{
			OFFSET 0.000000 -0.397594 8.456196
			CHANNELS 6 Xposition Yposition Zposition Xrotation Yrotation Zrotation
			JOINT Chest
			{
				OFFSET 0.000000 2.096201 10.463509
				CHANNELS 6 Xposition Yposition Zposition Xrotation Yrotation Zrotation
				JOINT Neck
				{
					OFFSET 0.000000 0.441311 23.579292
					CHANNELS 6 Xposition Yposition Zposition Xrotation Yrotation Zrotation
					JOINT Head
					{
						OFFSET -0.000100 -3.621794 13.315506
						CHANNELS 6 Xposition Yposition Zposition Xrotation Yrotation Zrotation
						End Site
						{
							OFFSET 0.000100 -0.555390 18.605103
						}
					}
				}
				JOINT LClavicle
				{
					OFFSET 2.142500 -7.016488 22.755196
					CHANNELS 6 Xposition Yposition Zposition Xrotation Yrotation Zrotation
					JOINT LShoulder
					{
						OFFSET 12.516600 5.281301 3.263897
						CHANNELS 6 Xposition Yposition Zposition Xrotation Yrotation Zrotation
						JOINT LForearm
						{
							OFFSET 29.541901 0.256001 -0.104698
							CHANNELS 6 Xposition Yposition Zposition Xrotation Yrotation Zrotation
							JOINT LHand
							{
								OFFSET 24.644199 0.147600 0.071499
								CHANNELS 6 Xposition Yposition Zposition Xrotation Yrotation Zrotation
								JOINT LFinger1
								{
									OFFSET 9.551399 -2.652902 0.835300
									CHANNELS 6 Xposition Yposition Zposition Xrotation Yrotation Zrotation
									JOINT LFinger11
									{
										OFFSET 3.572701 -0.629500 -0.871197
										CHANNELS 6 Xposition Yposition Zposition Xrotation Yrotation Zrotation
										JOINT LFinger12
										{
											OFFSET 2.439003 -0.429900 -0.594898
											CHANNELS 6 Xposition Yposition Zposition Xrotation Yrotation Zrotation
											End Site
											{
												OFFSET 1.735603 -0.281500 -0.518101
											}
										}
									}
								}
								JOINT LFinger2
								{
									OFFSET 9.693901 -0.230999 0.964600
									CHANNELS 6 Xposition Yposition Zposition Xrotation Yrotation Zrotation
									JOINT LFinger21
									{
										OFFSET 4.417397 0.026100 0.012299
										CHANNELS 6 Xposition Yposition Zposition Xrotation Yrotation Zrotation
										JOINT LFinger22
										{
											OFFSET 2.448601 0.014900 0.007500
											CHANNELS 6 Xposition Yposition Zposition Xrotation Yrotation Zrotation
											End Site
											{
												OFFSET 2.199303 -0.002900 -0.155300
											}
										}
									}
								}
								JOINT LFinger3
								{
									OFFSET 9.186996 2.173500 0.643799
									CHANNELS 6 Xposition Yposition Zposition Xrotation Yrotation Zrotation
									JOINT LFinger31
									{
										OFFSET 4.008400 0.251000 -0.202900
										CHANNELS 6 Xposition Yposition Zposition Xrotation Yrotation Zrotation
										JOINT LFinger32
										{
											OFFSET 2.284203 0.143500 -0.114899
											CHANNELS 6 Xposition Yposition Zposition Xrotation Yrotation Zrotation
											End Site
											{
												OFFSET 2.019600 0.095499 -0.248299
											}
										}
									}
								}
								JOINT LFinger4
								{
									OFFSET 8.525200 3.753599 -0.647804
									CHANNELS 6 Xposition Yposition Zposition Xrotation Yrotation Zrotation
									JOINT LFinger41
									{
										OFFSET 2.465500 0.680600 -0.514198
										CHANNELS 6 Xposition Yposition Zposition Xrotation Yrotation Zrotation
										JOINT LFinger42
										{
											OFFSET 1.807999 0.499399 -0.376499
											CHANNELS 6 Xposition Yposition Zposition Xrotation Yrotation Zrotation
											End Site
											{
												OFFSET 1.604698 0.368200 -0.440899
											}
										}
									}
								}
								JOINT LFinger0
								{
									OFFSET 1.975899 -1.497902 -1.495499
									CHANNELS 6 Xposition Yposition Zposition Xrotation Yrotation Zrotation
									JOINT LFinger01
									{
										OFFSET 3.678703 -2.773499 -1.208096
										CHANNELS 6 Xposition Yposition Zposition Xrotation Yrotation Zrotation
										JOINT LFinger02
										{
											OFFSET 2.422401 -1.745201 -0.866798
											CHANNELS 6 Xposition Yposition Zposition Xrotation Yrotation Zrotation
											End Site
											{
												OFFSET 1.781303 -1.219800 -0.613201
											}
										}
									}
								}
							}
						}
					}
				}
				JOINT RClavicle
				{
					OFFSET -2.142500 -7.016387 22.755196
					CHANNELS 6 Xposition Yposition Zposition Xrotation Yrotation Zrotation
					JOINT RShoulder
					{
						OFFSET -12.518800 5.282200 3.264496
						CHANNELS 6 Xposition Yposition Zposition Xrotation Yrotation Zrotation
						JOINT RForearm
						{
							OFFSET -29.541901 0.256001 -0.104698
							CHANNELS 6 Xposition Yposition Zposition Xrotation Yrotation Zrotation
							JOINT RHand
							{
								OFFSET -24.644196 0.147600 0.071499
								CHANNELS 6 Xposition Yposition Zposition Xrotation Yrotation Zrotation
								JOINT RFinger1
								{
									OFFSET -9.551399 -2.652902 0.835400
									CHANNELS 6 Xposition Yposition Zposition Xrotation Yrotation Zrotation
									JOINT RFinger11
									{
										OFFSET -3.572701 -0.629500 -0.871197
										CHANNELS 6 Xposition Yposition Zposition Xrotation Yrotation Zrotation
										JOINT RFinger12
										{
											OFFSET -2.439003 -0.429900 -0.595001
											CHANNELS 6 Xposition Yposition Zposition Xrotation Yrotation Zrotation
											End Site
											{
												OFFSET -1.735603 -0.281500 -0.518101
											}
										}
									}
								}
								JOINT RFinger2
								{
									OFFSET -9.693901 -0.230999 0.964699
									CHANNELS 6 Xposition Yposition Zposition Xrotation Yrotation Zrotation
									JOINT RFinger21
									{
										OFFSET -4.417503 0.026100 0.012299
										CHANNELS 6 Xposition Yposition Zposition Xrotation Yrotation Zrotation
										JOINT RFinger22
										{
											OFFSET -2.448601 0.015000 0.007500
											CHANNELS 6 Xposition Yposition Zposition Xrotation Yrotation Zrotation
											End Site
											{
												OFFSET -2.199303 -0.002900 -0.155300
											}
										}
									}
								}
								JOINT RFinger3
								{
									OFFSET -9.186996 2.173501 0.643799
									CHANNELS 6 Xposition Yposition Zposition Xrotation Yrotation Zrotation
									JOINT RFinger31
									{
										OFFSET -4.008400 0.251000 -0.202900
										CHANNELS 6 Xposition Yposition Zposition Xrotation Yrotation Zrotation
										JOINT RFinger32
										{
											OFFSET -2.284203 0.143500 -0.114899
											CHANNELS 6 Xposition Yposition Zposition Xrotation Yrotation Zrotation
											End Site
											{
												OFFSET -2.019600 0.095499 -0.248299
											}
										}
									}
								}
								JOINT RFinger4
								{
									OFFSET -8.525200 3.753598 -0.647804
									CHANNELS 6 Xposition Yposition Zposition Xrotation Yrotation Zrotation
									JOINT RFinger41
									{
										OFFSET -2.465500 0.680600 -0.514099
										CHANNELS 6 Xposition Yposition Zposition Xrotation Yrotation Zrotation
										JOINT RFinger42
										{
											OFFSET -1.807999 0.499399 -0.376400
											CHANNELS 6 Xposition Yposition Zposition Xrotation Yrotation Zrotation
											End Site
											{
												OFFSET -1.604698 0.368200 -0.440899
											}
										}
									}
								}
								JOINT RFinger0
								{
									OFFSET -1.975899 -1.497801 -1.495399
									CHANNELS 6 Xposition Yposition Zposition Xrotation Yrotation Zrotation
									JOINT RFinger01
									{
										OFFSET -3.678703 -2.773601 -1.208298
										CHANNELS 6 Xposition Yposition Zposition Xrotation Yrotation Zrotation
										JOINT RFinger02
										{
											OFFSET -2.422302 -1.745200 -0.866699
											CHANNELS 6 Xposition Yposition Zposition Xrotation Yrotation Zrotation
											End Site
											{
												OFFSET -1.781303 -1.219800 -0.613201
											}
										}
									}
								}
							}
						}
					}
				}
			}
		}
	}
	JOINT RThigh
	{
		OFFSET -10.956100 0.898701 4.188600
		CHANNELS 6 Xposition Yposition Zposition Xrotation Yrotation Zrotation
		JOINT RShin
		{
			OFFSET -0.793200 -0.000020 -43.115398
			CHANNELS 6 Xposition Yposition Zposition Xrotation Yrotation Zrotation
			JOINT RFoot
			{
				OFFSET 0.000000 -0.000019 -42.336796
				CHANNELS 6 Xposition Yposition Zposition Xrotation Yrotation Zrotation
				JOINT RToe
				{
					OFFSET 0.000000 -9.730402 -4.653191
					CHANNELS 6 Xposition Yposition Zposition Xrotation Yrotation Zrotation
					End Site
					{
						OFFSET 0.000000 -6.527802 -0.933151
					}
				}
			}
		}
	}
	JOINT LThigh
	{
		OFFSET 10.955900 0.898801 4.188900
		CHANNELS 6 Xposition Yposition Zposition Xrotation Yrotation Zrotation
		JOINT LShin
		{
			OFFSET 0.793300 -0.000020 -43.115700
			CHANNELS 6 Xposition Yposition Zposition Xrotation Yrotation Zrotation
			JOINT LFoot
			{
				OFFSET 0.000000 -0.000019 -42.336796
				CHANNELS 6 Xposition Yposition Zposition Xrotation Yrotation Zrotation
				JOINT LToe
				{
					OFFSET 0.000000 -9.730501 -4.653191
					CHANNELS 6 Xposition Yposition Zposition Xrotation Yrotation Zrotation
					End Site
					{
						OFFSET 0.000000 -6.527802 0.000000
					}
				}
			}
		}
	}
}
MOTION
Frames: 4
Frame Time: 0.041667
18.540899 -132.195602 100.410278 147.387464 -19.746908 -10.695671 0.000005 5.515829 9.266277 0.360255 7.945842 1.511314 -0.000001 -0.397576 8.456189 0.359432 7.917492 1.517239 0.000000 2.096184 10.463535 0.360261 7.945830 1.511313 -0.000001 0.441240 23.579292 -41.529449 -2.972269 -2.158667 -0.000102 -3.621794 13.315494 -6.608209 -1.851387 -0.159071 2.142509 -7.016541 22.755178 0.000016 -27.667520 0.000036 12.516594 5.281266 3.263908 -43.153299 -28.856924 -52.987856 29.541901 0.255979 -0.104670 0.032828 0.002330 -8.836871 24.644186 0.147610 0.071466 41.796212 -87.657746 68.097621 9.551392 -2.652907 0.835305 0.000001 -0.000000 0.000003 3.572675 -0.629494 -0.871184 0.000003 0.000005 0.000003 2.439005 -0.429900 -0.594885 -0.000000 0.000002 0.000004 9.693886 -0.231006 0.964584 0.000000 -0.000000 0.000002 4.417366 0.026083 0.012299 -0.000000 0.000000 0.000000 2.448623 0.014900 0.007508 -0.000001 -0.000001 -0.000003 9.186998 2.173504 0.643796 0.000000 0.000007 12.981323 4.008431 0.250997 -0.202920 0.000001 0.000001 0.000001 2.284188 0.143502 -0.114899 0.000000 0.000000 -0.000001 8.525192 3.753584 -0.647817 0.000000 -0.000000 -0.000004 2.465491 0.680597 -0.514208 -0.000003 -0.000001 0.000003 1.807927 0.499385 -0.376510 0.000001 -0.000002 0.000007 1.975861 -1.497910 -1.495522 0.000004 0.000009 -0.000001 3.678701 -2.773494 -1.208117 0.000008 0.000006 0.000001 2.422407 -1.745180 -0.866786 -0.000006 0.000006 -0.000001 -2.142507 -7.016435 22.755203 0.000009 27.997828 -0.000036 -12.518806 5.282181 3.264511 -30.956261 37.613701 42.560910 -29.541882 0.256013 -0.104695 -0.000001 0.000001 1.839960 -24.644178 0.147581 0.071494 118.181124 88.312666 -165.164151 -9.551380 -2.652901 0.835400 -1.514417 0.000567 22.194833 -3.572681 -0.629512 -0.871213 0.000005 0.000005 -0.000004 -2.438978 -0.429915 -0.594971 -0.000014 0.000010 0.000003 -9.693893 -0.230987 0.964689 -0.000003 0.000000 0.000002 -4.417510 0.026116 0.012291 -0.000001 0.000000 -0.000007 -2.448623 0.015001 0.007487 0.000002 0.000001 -0.000001 -9.187013 2.173512 0.643791 -0.000001 -0.000001 -0.000001 -4.008368 0.250999 -0.202893 0.000002 0.000001 -0.000000 -2.284202 0.143508 -0.114895 0.000002 0.000000 -0.000000 -8.525209 3.753607 -0.647811 0.000002 -0.000001 0.000001 -2.465469 0.680591 -0.514097 0.000001 0.000002 0.000006 -1.807980 0.499386 -0.376387 0.000003 0.000004 -0.000001 -1.975895 -1.497788 -1.495411 -0.000003 -0.000004 0.000001 -3.678731 -2.773584 -1.208323 -0.000013 0.000003 -0.000003 -2.422275 -1.745226 -0.866705 0.000003 0.000005 -0.000007 -10.956101 0.898737 4.188588 -16.134935 19.104924 -0.876339 -0.793203 -0.000038 -43.115402 9.208529 -0.000001 -0.000000 -0.000005 -0.000016 -42.336773 0.991238 0.090575 -0.204347 0.000010 -9.730410 -4.653183 0.000004 0.000000 -0.000002 10.955894 0.898842 4.188872 -140.300596 -9.586843 -7.835559 0.793297 -0.000034 -43.115688 23.853302 -0.000008 0.000005 0.000005 0.000000 -42.336838 -1.028059 3.618681 -7.374453 -0.000005 -9.730507 -4.653175 0.000038 -0.000002 -0.000002 
18.886999 -134.642899 101.274773 147.460342 -19.514445 -10.838169 0.000002 5.515816 9.266305 0.957336 7.994391 1.585862 0.000003 -0.397645 8.456199 0.957352 7.994395 1.585865 0.000001 2.096221 10.463520 0.957362 7.994395 1.585859 -0.000005 0.441264 23.579304 -41.959590 -3.023161 -2.212958 -0.000107 -3.621806 13.315481 -6.702064 -1.978545 -0.173190 2.142505 -7.016488 22.755190 0.000026 -27.703018 0.000040 12.516596 5.281271 3.263904 -43.327541 -29.979251 -54.177880 29.541904 0.255993 -0.104702 0.025438 0.003331 -6.166464 24.644176 0.147593 0.071506 53.706655 -88.063350 80.016240 9.551387 -2.652917 0.835310 -0.000001 -0.000004 0.000002 3.572661 -0.629476 -0.871196 -0.000001 -0.000001 0.000003 2.438990 -0.429910 -0.594887 0.000003 0.000003 0.000001 9.693924 -0.231014 0.964588 -0.000000 -0.000000 -0.000003 4.417427 0.026115 0.012299 -0.000000 -0.000000 0.000002 2.448624 0.014916 0.007504 0.000001 0.000000 -0.000003 9.187036 2.173497 0.643788 -0.000000 0.000007 12.981326 4.008361 0.250995 -0.202907 0.000001 -0.000000 0.000001 2.284212 0.143499 -0.114896 0.000001 0.000002 -0.000001 8.525209 3.753583 -0.647832 0.000001 0.000001 -0.000003 2.465491 0.680612 -0.514217 0.000001 -0.000000 0.000005 1.807966 0.499382 -0.376520 -0.000003 -0.000003 -0.000000 1.975917 -1.497924 -1.495511 -0.000004 0.000003 0.000008 3.678690 -2.773525 -1.208098 -0.000000 0.000003 0.000006 2.422407 -1.745162 -0.866791 -0.000006 0.000006 0.000005 -2.142507 -7.016374 22.755213 0.000007 28.077453 -0.000038 -12.518779 5.282198 3.264484 -29.996661 37.832339 40.302716 -29.541903 0.256003 -0.104703 -0.000004 0.000005 3.640411 -24.644178 0.147612 0.071493 133.198920 87.959606 -182.650883 -9.551380 -2.652895 0.835400 -1.514412 0.000568 22.194840 -3.572679 -0.629522 -0.871196 0.000005 0.000007 -0.000000 -2.438989 -0.429903 -0.594994 -0.000010 0.000007 -0.000001 -9.693878 -0.230996 0.964688 0.000003 -0.000000 -0.000001 -4.417503 0.026092 0.012310 0.000001 0.000000 -0.000004 -2.448691 0.014996 0.007494 0.000002 0.000002 0.000001 -9.187026 2.173522 0.643781 -0.000001 0.000000 -0.000001 -4.008408 0.250991 -0.202892 -0.000001 -0.000000 0.000003 -2.284211 0.143513 -0.114907 -0.000001 -0.000000 0.000001 -8.525203 3.753608 -0.647823 0.000005 -0.000003 0.000001 -2.465471 0.680601 -0.514096 0.000006 -0.000001 0.000006 -1.807958 0.499381 -0.376394 0.000001 0.000002 -0.000005 -1.975911 -1.497783 -1.495421 -0.000008 -0.000004 0.000003 -3.678718 -2.773590 -1.208289 -0.000010 0.000001 -0.000003 -2.422282 -1.745207 -0.866721 0.000001 0.000005 -0.000000 -10.956094 0.898700 4.188612 -9.702597 19.574001 -2.356504 -0.793201 -0.000052 -43.115410 4.128567 -0.000004 0.000006 -0.000004 -0.000006 -42.336773 1.431997 -1.004814 2.166368 0.000004 -9.730423 -4.653183 0.000003 0.000001 0.000002 10.955900 0.898797 4.188902 -138.600944 -10.152701 -1.643285 0.793299 -0.000031 -43.115696 25.797908 -0.000010 0.000003 0.000002 0.000004 -42.336857 -0.466777 3.037184 -6.238107 0.000002 -9.730497 -4.653198 0.000051 -0.000003 -0.000000 
19.199001 -136.765900 102.006073 147.527442 -19.199477 -11.125287 0.000010 5.515784 9.266312 1.413595 8.014438 1.715578 0.000001 -0.397623 8.456189 1.413581 8.014446 1.715588 -0.000002 2.096206 10.463504 1.413599 8.014443 1.715584 -0.000000 0.441266 23.579290 -42.273663 -3.016140 -2.216355 -0.000097 -3.621792 13.315508 -6.796264 -2.157286 -0.192733 2.142510 -7.016532 22.755184 0.000019 -27.755020 0.000034 12.516596 5.281278 3.263907 -43.663934 -30.575034 -56.096801 29.541912 0.255971 -0.104698 0.017639 0.002298 -3.518269 24.644186 0.147572 0.071497 64.442145 -88.269827 90.757231 9.551367 -2.652901 0.835302 -0.000000 -0.000001 0.000002 3.572689 -0.629507 -0.871195 -0.000000 0.000004 0.000001 2.439008 -0.429909 -0.594894 -0.000000 -0.000003 -0.000000 9.693832 -0.230996 0.964588 -0.000001 -0.000001 -0.000002 4.417397 0.026091 0.012292 0.000000 0.000000 0.000001 2.448592 0.014898 0.007501 0.000001 -0.000001 -0.000001 9.186975 2.173510 0.643799 -0.000000 0.000007 12.981325 4.008422 0.250997 -0.202914 0.000001 -0.000001 0.000001 2.284179 0.143505 -0.114892 0.000000 -0.000001 -0.000000 8.525186 3.753600 -0.647823 0.000002 0.000001 0.000002 2.465484 0.680607 -0.514221 -0.000003 0.000001 0.000006 1.808003 0.499388 -0.376507 -0.000004 -0.000004 -0.000002 1.975847 -1.497902 -1.495527 0.000001 0.000010 -0.000002 3.678720 -2.773516 -1.208118 0.000006 0.000002 -0.000000 2.422397 -1.745177 -0.866819 -0.000005 0.000021 0.000008 -2.142518 -7.016437 22.755165 0.000014 28.169114 -0.000040 -12.518793 5.282218 3.264497 -29.052722 37.567847 38.846503 -29.541882 0.255985 -0.104675 -0.000003 0.000007 3.560361 -24.644190 0.147600 0.071488 134.976600 87.457383 -185.448174 -9.551365 -2.652895 0.835401 -1.514412 0.000569 22.194838 -3.572713 -0.629509 -0.871196 0.000005 0.000003 0.000002 -2.438977 -0.429926 -0.595007 -0.000006 0.000003 -0.000001 -9.693864 -0.231000 0.964706 0.000000 -0.000001 -0.000002 -4.417480 0.026097 0.012309 -0.000000 -0.000000 -0.000002 -2.448625 0.014990 0.007483 0.000003 -0.000001 0.000001 -9.187027 2.173516 0.643783 -0.000002 0.000000 -0.000001 -4.008431 0.251011 -0.202888 0.000001 -0.000000 -0.000000 -2.284165 0.143503 -0.114899 0.000001 -0.000001 -0.000002 -8.525204 3.753596 -0.647815 0.000002 -0.000003 0.000008 -2.465471 0.680595 -0.514091 0.000004 -0.000001 -0.000000 -1.807971 0.499387 -0.376390 0.000001 0.000004 -0.000005 -1.975861 -1.497783 -1.495423 -0.000007 -0.000009 0.000003 -3.678698 -2.773613 -1.208295 -0.000012 0.000006 0.000005 -2.422316 -1.745209 -0.866734 0.000004 0.000002 -0.000002 -10.956096 0.898671 4.188597 -5.015769 19.886658 -3.560651 -0.793206 -0.000021 -43.115391 1.658262 -0.000003 0.000001 -0.000001 -0.000041 -42.336777 1.487264 -1.931636 4.174739 0.000013 -9.730423 -4.653183 0.000002 0.000000 -0.000002 10.955898 0.898779 4.188908 -140.715776 -10.962251 3.935657 0.793294 -0.000056 -43.115688 33.146983 -0.000014 0.000008 -0.000001 -0.000029 -42.336811 -0.388352 1.361255 -2.860422 -0.000002 -9.730508 -4.653174 0.000038 0.000001 -0.000002 
19.366104 -138.774719 102.686691 147.363216 -18.910951 -11.567314 0.000012 5.515796 9.266301 2.002131 8.034514 1.889018 -0.000001 -0.397634 8.456206 2.002118 8.040632 1.889096 0.000001 2.096184 10.463493 2.002121 8.040634 1.889096 0.000002 0.441293 23.579300 -42.651407 -3.002491 -2.225738 -0.000099 -3.621795 13.315520 -6.790553 -2.392489 -0.213609 2.142498 -7.016499 22.755205 0.000025 -27.819407 0.000035 12.516582 5.281271 3.263899 -43.815131 -31.659894 -57.069297 29.541895 0.256047 -0.104669 0.006506 0.000955 -1.420557 24.644167 0.147595 0.071483 101.775112 -88.394778 134.372292 9.551374 -2.652910 0.835309 0.000000 -0.000001 0.000003 3.572656 -0.629486 -0.871168 0.000001 0.000001 -0.000001 2.438999 -0.429908 -0.594891 0.000003 0.000004 0.000003 9.693871 -0.231010 0.964588 0.000001 0.000000 0.000001 4.417412 0.026107 0.012299 0.000000 0.000000 0.000002 2.448653 0.014901 0.007505 0.000001 -0.000002 0.000000 9.186983 2.173494 0.643802 -0.000000 0.000007 12.981324 4.008368 0.250993 -0.202911 0.000001 -0.000001 0.000001 2.284195 0.143499 -0.114899 -0.000000 0.000000 0.000000 8.525185 3.753579 -0.647818 0.000001 0.000000 0.000000 2.465437 0.680582 -0.514207 -0.000000 -0.000001 0.000004 1.808003 0.499382 -0.376514 0.000001 -0.000003 0.000001 1.975883 -1.497907 -1.495519 0.000001 0.000009 0.000006 3.678728 -2.773468 -1.208091 0.000003 0.000002 0.000004 2.422390 -1.745178 -0.866776 -0.000004 0.000004 0.000006 -2.142509 -7.016416 22.755203 0.000013 28.273520 -0.000029 -12.518791 5.282223 3.264507 -28.672284 37.585472 37.984366 -29.541889 0.256025 -0.104680 0.000000 0.000008 3.480309 -24.644186 0.147598 0.071495 150.187186 87.007505 -201.696606 -9.551435 -2.652911 0.835387 -1.514412 0.000567 22.194838 -3.572697 -0.629501 -0.871195 0.000004 0.000004 -0.000004 -2.438928 -0.429898 -0.594986 -0.000000 0.000007 -0.000001 -9.693932 -0.230996 0.964691 -0.000000 0.000000 0.000002 -4.417549 0.026102 0.012299 -0.000000 0.000001 0.000000 -2.448648 0.014995 0.007483 0.000001 -0.000001 0.000001 -9.187050 2.173502 0.643781 -0.000001 0.000001 0.000002 -4.008385 0.251001 -0.202897 -0.000000 -0.000000 -0.000000 -2.284196 0.143504 -0.114884 0.000001 -0.000001 -0.000003 -8.525233 3.753587 -0.647816 0.000001 -0.000001 0.000012 -2.465463 0.680601 -0.514095 0.000003 0.000000 0.000006 -1.807967 0.499394 -0.376376 0.000002 -0.000001 -0.000008 -1.975918 -1.497796 -1.495409 -0.000005 -0.000004 0.000001 -3.678693 -2.773602 -1.208326 -0.000009 0.000011 -0.000006 -2.422297 -1.745193 -0.866695 0.000003 0.000006 -0.000005 -10.956099 0.898685 4.188580 -1.714434 20.036717 -4.515912 -0.793199 -0.000024 -43.115440 2.147545 -0.000001 0.000000 0.000007 -0.000037 -42.336792 2.099072 -2.480365 5.450281 0.000009 -9.730431 -4.653152 0.000000 0.000000 -0.000001 10.955904 0.898825 4.188906 -143.455105 -12.326448 7.365679 0.793295 -0.000073 -43.115711 42.582121 -0.000012 0.000007 0.000000 -0.000018 -42.336834 -0.643010 0.367034 -0.771685 -0.000006 -9.730509 -4.653173 0.000044 -0.000002 0.000001 
